<svg xmlns="http://www.w3.org/2000/svg" viewBox="0 0 240 240" width="240" height="240" fill="none">
  <!-- Waraqa interlaced star: overlapping diamond layers (architectural linework). -->
  <g
    fill="none"
    stroke="#B58C42"
    stroke-width="1.6"
    stroke-linecap="round"
    stroke-linejoin="round"
    vector-effect="non-scaling-stroke"
  >
    <!-- 1. Elongated vertical diamond -->
    <path d="M 120 26 L 144 120 L 120 214 L 96 120 Z" />
    <!-- 2. Medium horizontal diamond -->
    <path d="M 38 120 L 120 98 L 202 120 L 120 142 Z" />
    <!-- 3. Diagonal diamond +45° (slightly shorter) -->
    <path transform="rotate(45 120 120)" d="M 120 48 L 138 120 L 120 192 L 102 120 Z" />
    <!-- 4. Diagonal diamond -45° (slightly shorter) -->
    <path transform="rotate(-45 120 120)" d="M 120 48 L 138 120 L 120 192 L 102 120 Z" />
    <!-- 5. Center circle -->
    <circle cx="120" cy="120" r="10" />
    <!-- 6. Outer diamonds -->
    <path d="M 120 6 L 125 18 L 120 30 L 115 18 Z" />
    <path d="M 210 120 L 222 115 L 234 120 L 222 125 Z" />
    <path d="M 120 210 L 125 222 L 120 234 L 115 222 Z" />
    <path d="M 6 120 L 18 115 L 30 120 L 18 125 Z" />
  </g>
</svg>
